<mxfile host="app.diagrams.net" modified="2021-01-19T15:21:15.230Z" agent="5.0 (Macintosh; Intel Mac OS X 10_15_6) AppleWebKit/537.36 (KHTML, like Gecko) Chrome/87.0.4280.141 Safari/537.36" etag="mUE2Zm_H9ibeRC0dVw_m" version="14.2.4" type="github">
  <diagram id="3QPQDckH8jbbtDxLVCtZ" name="Page-1">
    <mxGraphModel dx="946" dy="544" grid="1" gridSize="10" guides="1" tooltips="1" connect="1" arrows="1" fold="1" page="1" pageScale="1" pageWidth="827" pageHeight="1169" math="0" shadow="0">
      <root>
        <mxCell id="0" />
        <mxCell id="1" parent="0" />
        <mxCell id="UUTL4RO-VTSz0hLZxPiV-30" value="" style="rounded=0;whiteSpace=wrap;html=1;dashed=1;" vertex="1" parent="1">
          <mxGeometry x="440" y="50" width="460" height="281" as="geometry" />
        </mxCell>
        <mxCell id="UUTL4RO-VTSz0hLZxPiV-1" value="&lt;span style=&quot;font-size: 14px&quot;&gt;npm包&lt;/span&gt;" style="rounded=1;whiteSpace=wrap;html=1;" vertex="1" parent="1">
          <mxGeometry x="40" y="414" width="120" height="60" as="geometry" />
        </mxCell>
        <mxCell id="UUTL4RO-VTSz0hLZxPiV-2" value="&lt;span style=&quot;font-size: 14px&quot;&gt;Apollo下发&lt;br&gt;&lt;/span&gt;" style="rounded=1;whiteSpace=wrap;html=1;" vertex="1" parent="1">
          <mxGeometry x="40" y="557" width="120" height="60" as="geometry" />
        </mxCell>
        <mxCell id="UUTL4RO-VTSz0hLZxPiV-7" value="" style="endArrow=classic;html=1;entryX=0;entryY=0.5;entryDx=0;entryDy=0;edgeStyle=orthogonalEdgeStyle;exitX=1;exitY=0.5;exitDx=0;exitDy=0;" edge="1" parent="1" source="UUTL4RO-VTSz0hLZxPiV-1">
          <mxGeometry width="50" height="50" relative="1" as="geometry">
            <mxPoint x="160" y="388" as="sourcePoint" />
            <mxPoint x="270" y="518" as="targetPoint" />
            <Array as="points">
              <mxPoint x="210" y="444" />
              <mxPoint x="210" y="518" />
            </Array>
          </mxGeometry>
        </mxCell>
        <mxCell id="UUTL4RO-VTSz0hLZxPiV-8" value="" style="endArrow=classic;html=1;entryX=0;entryY=0.5;entryDx=0;entryDy=0;exitX=1;exitY=0.5;exitDx=0;exitDy=0;edgeStyle=orthogonalEdgeStyle;" edge="1" parent="1" source="UUTL4RO-VTSz0hLZxPiV-2">
          <mxGeometry width="50" height="50" relative="1" as="geometry">
            <mxPoint x="160" y="518" as="sourcePoint" />
            <mxPoint x="270" y="518" as="targetPoint" />
            <Array as="points">
              <mxPoint x="210" y="587" />
              <mxPoint x="210" y="518" />
            </Array>
          </mxGeometry>
        </mxCell>
        <mxCell id="UUTL4RO-VTSz0hLZxPiV-10" value="" style="endArrow=classic;html=1;edgeStyle=orthogonalEdgeStyle;entryX=0;entryY=0.5;entryDx=0;entryDy=0;" edge="1" parent="1">
          <mxGeometry width="50" height="50" relative="1" as="geometry">
            <mxPoint x="430" y="211" as="sourcePoint" />
            <mxPoint x="550" y="145" as="targetPoint" />
            <Array as="points">
              <mxPoint x="490" y="211" />
              <mxPoint x="490" y="145" />
            </Array>
          </mxGeometry>
        </mxCell>
        <mxCell id="UUTL4RO-VTSz0hLZxPiV-14" value="元数据&lt;br&gt;全集" style="ellipse;whiteSpace=wrap;html=1;" vertex="1" parent="1">
          <mxGeometry x="270" y="477" width="120" height="80" as="geometry" />
        </mxCell>
        <mxCell id="UUTL4RO-VTSz0hLZxPiV-16" value="&lt;span style=&quot;font-size: 14px&quot;&gt;商机业务getter&lt;br&gt;&lt;/span&gt;" style="rounded=1;whiteSpace=wrap;html=1;" vertex="1" parent="1">
          <mxGeometry x="550" y="114" width="120" height="60" as="geometry" />
        </mxCell>
        <mxCell id="UUTL4RO-VTSz0hLZxPiV-17" value="&lt;span style=&quot;font-size: 14px&quot;&gt;申请签约流程getter&lt;br&gt;&lt;/span&gt;" style="rounded=1;whiteSpace=wrap;html=1;" vertex="1" parent="1">
          <mxGeometry x="550" y="244" width="120" height="60" as="geometry" />
        </mxCell>
        <mxCell id="UUTL4RO-VTSz0hLZxPiV-19" value="" style="endArrow=classic;html=1;entryX=0;entryY=0.5;entryDx=0;entryDy=0;edgeStyle=orthogonalEdgeStyle;exitX=1;exitY=0.5;exitDx=0;exitDy=0;" edge="1" parent="1" source="UUTL4RO-VTSz0hLZxPiV-14">
          <mxGeometry width="50" height="50" relative="1" as="geometry">
            <mxPoint x="410" y="490" as="sourcePoint" />
            <mxPoint x="550" y="273" as="targetPoint" />
            <Array as="points">
              <mxPoint x="420" y="517" />
              <mxPoint x="420" y="211" />
              <mxPoint x="490" y="211" />
              <mxPoint x="490" y="273" />
            </Array>
          </mxGeometry>
        </mxCell>
        <mxCell id="UUTL4RO-VTSz0hLZxPiV-22" value="&lt;span style=&quot;font-size: 14px&quot;&gt;传给soda-form&lt;br&gt;&lt;/span&gt;" style="rounded=1;whiteSpace=wrap;html=1;" vertex="1" parent="1">
          <mxGeometry x="750" y="114" width="120" height="60" as="geometry" />
        </mxCell>
        <mxCell id="UUTL4RO-VTSz0hLZxPiV-23" value="&lt;font style=&quot;font-size: 14px&quot;&gt;传给soda-form&lt;/font&gt;" style="rounded=1;whiteSpace=wrap;html=1;" vertex="1" parent="1">
          <mxGeometry x="750" y="244" width="120" height="60" as="geometry" />
        </mxCell>
        <mxCell id="UUTL4RO-VTSz0hLZxPiV-24" value="" style="endArrow=classic;html=1;entryX=0;entryY=0.5;entryDx=0;entryDy=0;exitX=1;exitY=0.5;exitDx=0;exitDy=0;" edge="1" parent="1" source="UUTL4RO-VTSz0hLZxPiV-16" target="UUTL4RO-VTSz0hLZxPiV-22">
          <mxGeometry width="50" height="50" relative="1" as="geometry">
            <mxPoint x="670" y="150" as="sourcePoint" />
            <mxPoint x="720" y="100" as="targetPoint" />
          </mxGeometry>
        </mxCell>
        <mxCell id="UUTL4RO-VTSz0hLZxPiV-25" value="获取该业务字段" style="text;html=1;resizable=0;autosize=1;align=center;verticalAlign=middle;points=[];fillColor=none;strokeColor=none;rounded=0;" vertex="1" parent="1">
          <mxGeometry x="660" y="94" width="100" height="20" as="geometry" />
        </mxCell>
        <mxCell id="UUTL4RO-VTSz0hLZxPiV-26" value="" style="endArrow=classic;html=1;exitX=1;exitY=0.5;exitDx=0;exitDy=0;entryX=0;entryY=0.5;entryDx=0;entryDy=0;" edge="1" parent="1" target="UUTL4RO-VTSz0hLZxPiV-23">
          <mxGeometry width="50" height="50" relative="1" as="geometry">
            <mxPoint x="670" y="274" as="sourcePoint" />
            <mxPoint x="750" y="273" as="targetPoint" />
          </mxGeometry>
        </mxCell>
        <mxCell id="UUTL4RO-VTSz0hLZxPiV-27" value="获取该业务字段" style="text;html=1;resizable=0;autosize=1;align=center;verticalAlign=middle;points=[];fillColor=none;strokeColor=none;rounded=0;" vertex="1" parent="1">
          <mxGeometry x="660" y="221" width="100" height="20" as="geometry" />
        </mxCell>
        <mxCell id="UUTL4RO-VTSz0hLZxPiV-31" value="&lt;b&gt;Gattaran&lt;/b&gt;" style="text;html=1;resizable=0;autosize=1;align=center;verticalAlign=middle;points=[];fillColor=none;strokeColor=none;rounded=0;dashed=1;" vertex="1" parent="1">
          <mxGeometry x="460" y="60" width="60" height="20" as="geometry" />
        </mxCell>
        <mxCell id="UUTL4RO-VTSz0hLZxPiV-32" value="" style="rounded=0;whiteSpace=wrap;html=1;dashed=1;" vertex="1" parent="1">
          <mxGeometry x="440" y="350" width="460" height="281" as="geometry" />
        </mxCell>
        <mxCell id="UUTL4RO-VTSz0hLZxPiV-33" value="&lt;span style=&quot;font-size: 14px&quot;&gt;商机业务getter&lt;br&gt;&lt;/span&gt;" style="rounded=1;whiteSpace=wrap;html=1;" vertex="1" parent="1">
          <mxGeometry x="550" y="414" width="120" height="60" as="geometry" />
        </mxCell>
        <mxCell id="UUTL4RO-VTSz0hLZxPiV-34" value="&lt;span style=&quot;font-size: 14px&quot;&gt;申请签约流程getter&lt;br&gt;&lt;/span&gt;" style="rounded=1;whiteSpace=wrap;html=1;" vertex="1" parent="1">
          <mxGeometry x="550" y="544" width="120" height="60" as="geometry" />
        </mxCell>
        <mxCell id="UUTL4RO-VTSz0hLZxPiV-35" value="&lt;span style=&quot;font-size: 14px&quot;&gt;传给soda-form&lt;br&gt;&lt;/span&gt;" style="rounded=1;whiteSpace=wrap;html=1;" vertex="1" parent="1">
          <mxGeometry x="750" y="414" width="120" height="60" as="geometry" />
        </mxCell>
        <mxCell id="UUTL4RO-VTSz0hLZxPiV-36" value="&lt;font style=&quot;font-size: 14px&quot;&gt;传给soda-form&lt;/font&gt;" style="rounded=1;whiteSpace=wrap;html=1;" vertex="1" parent="1">
          <mxGeometry x="750" y="544" width="120" height="60" as="geometry" />
        </mxCell>
        <mxCell id="UUTL4RO-VTSz0hLZxPiV-37" value="" style="endArrow=classic;html=1;entryX=0;entryY=0.5;entryDx=0;entryDy=0;exitX=1;exitY=0.5;exitDx=0;exitDy=0;" edge="1" parent="1" source="UUTL4RO-VTSz0hLZxPiV-33" target="UUTL4RO-VTSz0hLZxPiV-35">
          <mxGeometry width="50" height="50" relative="1" as="geometry">
            <mxPoint x="670" y="450" as="sourcePoint" />
            <mxPoint x="720" y="400" as="targetPoint" />
          </mxGeometry>
        </mxCell>
        <mxCell id="UUTL4RO-VTSz0hLZxPiV-38" value="获取该业务字段" style="text;html=1;resizable=0;autosize=1;align=center;verticalAlign=middle;points=[];fillColor=none;strokeColor=none;rounded=0;" vertex="1" parent="1">
          <mxGeometry x="660" y="394" width="100" height="20" as="geometry" />
        </mxCell>
        <mxCell id="UUTL4RO-VTSz0hLZxPiV-39" value="" style="endArrow=classic;html=1;exitX=1;exitY=0.5;exitDx=0;exitDy=0;entryX=0;entryY=0.5;entryDx=0;entryDy=0;" edge="1" parent="1" target="UUTL4RO-VTSz0hLZxPiV-36">
          <mxGeometry width="50" height="50" relative="1" as="geometry">
            <mxPoint x="670" y="574" as="sourcePoint" />
            <mxPoint x="750" y="573" as="targetPoint" />
          </mxGeometry>
        </mxCell>
        <mxCell id="UUTL4RO-VTSz0hLZxPiV-40" value="获取该业务字段" style="text;html=1;resizable=0;autosize=1;align=center;verticalAlign=middle;points=[];fillColor=none;strokeColor=none;rounded=0;" vertex="1" parent="1">
          <mxGeometry x="660" y="521" width="100" height="20" as="geometry" />
        </mxCell>
        <mxCell id="UUTL4RO-VTSz0hLZxPiV-41" value="&lt;b&gt;BDAPP&lt;/b&gt;" style="text;html=1;resizable=0;autosize=1;align=center;verticalAlign=middle;points=[];fillColor=none;strokeColor=none;rounded=0;dashed=1;" vertex="1" parent="1">
          <mxGeometry x="460" y="360" width="60" height="20" as="geometry" />
        </mxCell>
        <mxCell id="UUTL4RO-VTSz0hLZxPiV-42" value="" style="rounded=0;whiteSpace=wrap;html=1;dashed=1;" vertex="1" parent="1">
          <mxGeometry x="440" y="660" width="460" height="281" as="geometry" />
        </mxCell>
        <mxCell id="UUTL4RO-VTSz0hLZxPiV-43" value="&lt;span style=&quot;font-size: 14px&quot;&gt;信息收集getter&lt;br&gt;&lt;/span&gt;" style="rounded=1;whiteSpace=wrap;html=1;" vertex="1" parent="1">
          <mxGeometry x="550" y="724" width="120" height="60" as="geometry" />
        </mxCell>
        <mxCell id="UUTL4RO-VTSz0hLZxPiV-44" value="&lt;span style=&quot;font-size: 14px&quot;&gt;自入驻流程getter&lt;br&gt;&lt;/span&gt;" style="rounded=1;whiteSpace=wrap;html=1;" vertex="1" parent="1">
          <mxGeometry x="550" y="854" width="120" height="60" as="geometry" />
        </mxCell>
        <mxCell id="UUTL4RO-VTSz0hLZxPiV-45" value="&lt;span style=&quot;font-size: 14px&quot;&gt;传给soda-form&lt;br&gt;&lt;/span&gt;" style="rounded=1;whiteSpace=wrap;html=1;" vertex="1" parent="1">
          <mxGeometry x="750" y="724" width="120" height="60" as="geometry" />
        </mxCell>
        <mxCell id="UUTL4RO-VTSz0hLZxPiV-46" value="&lt;font style=&quot;font-size: 14px&quot;&gt;传给soda-form&lt;/font&gt;" style="rounded=1;whiteSpace=wrap;html=1;" vertex="1" parent="1">
          <mxGeometry x="750" y="854" width="120" height="60" as="geometry" />
        </mxCell>
        <mxCell id="UUTL4RO-VTSz0hLZxPiV-47" value="" style="endArrow=classic;html=1;entryX=0;entryY=0.5;entryDx=0;entryDy=0;exitX=1;exitY=0.5;exitDx=0;exitDy=0;" edge="1" parent="1" source="UUTL4RO-VTSz0hLZxPiV-43" target="UUTL4RO-VTSz0hLZxPiV-45">
          <mxGeometry width="50" height="50" relative="1" as="geometry">
            <mxPoint x="670" y="760" as="sourcePoint" />
            <mxPoint x="720" y="710" as="targetPoint" />
          </mxGeometry>
        </mxCell>
        <mxCell id="UUTL4RO-VTSz0hLZxPiV-48" value="获取该业务字段" style="text;html=1;resizable=0;autosize=1;align=center;verticalAlign=middle;points=[];fillColor=none;strokeColor=none;rounded=0;" vertex="1" parent="1">
          <mxGeometry x="660" y="704" width="100" height="20" as="geometry" />
        </mxCell>
        <mxCell id="UUTL4RO-VTSz0hLZxPiV-49" value="" style="endArrow=classic;html=1;exitX=1;exitY=0.5;exitDx=0;exitDy=0;entryX=0;entryY=0.5;entryDx=0;entryDy=0;" edge="1" parent="1" target="UUTL4RO-VTSz0hLZxPiV-46">
          <mxGeometry width="50" height="50" relative="1" as="geometry">
            <mxPoint x="670" y="884" as="sourcePoint" />
            <mxPoint x="750" y="883" as="targetPoint" />
          </mxGeometry>
        </mxCell>
        <mxCell id="UUTL4RO-VTSz0hLZxPiV-50" value="获取该业务字段" style="text;html=1;resizable=0;autosize=1;align=center;verticalAlign=middle;points=[];fillColor=none;strokeColor=none;rounded=0;" vertex="1" parent="1">
          <mxGeometry x="660" y="831" width="100" height="20" as="geometry" />
        </mxCell>
        <mxCell id="UUTL4RO-VTSz0hLZxPiV-51" value="&lt;b&gt;B官网&lt;/b&gt;" style="text;html=1;resizable=0;autosize=1;align=center;verticalAlign=middle;points=[];fillColor=none;strokeColor=none;rounded=0;dashed=1;" vertex="1" parent="1">
          <mxGeometry x="465" y="670" width="50" height="20" as="geometry" />
        </mxCell>
        <mxCell id="UUTL4RO-VTSz0hLZxPiV-53" value="" style="endArrow=classic;html=1;edgeStyle=orthogonalEdgeStyle;entryX=0;entryY=0.5;entryDx=0;entryDy=0;" edge="1" parent="1" target="UUTL4RO-VTSz0hLZxPiV-33">
          <mxGeometry width="50" height="50" relative="1" as="geometry">
            <mxPoint x="390" y="510" as="sourcePoint" />
            <mxPoint x="520" y="413" as="targetPoint" />
            <Array as="points">
              <mxPoint x="390" y="520" />
              <mxPoint x="470" y="520" />
              <mxPoint x="470" y="444" />
            </Array>
          </mxGeometry>
        </mxCell>
        <mxCell id="UUTL4RO-VTSz0hLZxPiV-54" value="" style="endArrow=classic;html=1;edgeStyle=orthogonalEdgeStyle;" edge="1" parent="1">
          <mxGeometry width="50" height="50" relative="1" as="geometry">
            <mxPoint x="390" y="510" as="sourcePoint" />
            <mxPoint x="550" y="570" as="targetPoint" />
            <Array as="points">
              <mxPoint x="390" y="520" />
              <mxPoint x="470" y="520" />
              <mxPoint x="470" y="570" />
            </Array>
          </mxGeometry>
        </mxCell>
        <mxCell id="UUTL4RO-VTSz0hLZxPiV-55" value="" style="endArrow=classic;html=1;entryX=0;entryY=0.5;entryDx=0;entryDy=0;exitX=1;exitY=0.5;exitDx=0;exitDy=0;edgeStyle=orthogonalEdgeStyle;" edge="1" parent="1" source="UUTL4RO-VTSz0hLZxPiV-14" target="UUTL4RO-VTSz0hLZxPiV-43">
          <mxGeometry width="50" height="50" relative="1" as="geometry">
            <mxPoint x="380" y="730" as="sourcePoint" />
            <mxPoint x="430" y="680" as="targetPoint" />
            <Array as="points">
              <mxPoint x="420" y="517" />
              <mxPoint x="420" y="820" />
              <mxPoint x="510" y="820" />
              <mxPoint x="510" y="754" />
            </Array>
          </mxGeometry>
        </mxCell>
        <mxCell id="UUTL4RO-VTSz0hLZxPiV-56" value="" style="endArrow=classic;html=1;entryX=0;entryY=0.25;entryDx=0;entryDy=0;edgeStyle=orthogonalEdgeStyle;" edge="1" parent="1" target="UUTL4RO-VTSz0hLZxPiV-44">
          <mxGeometry width="50" height="50" relative="1" as="geometry">
            <mxPoint x="400" y="520" as="sourcePoint" />
            <mxPoint x="490" y="830" as="targetPoint" />
            <Array as="points">
              <mxPoint x="420" y="520" />
              <mxPoint x="420" y="820" />
              <mxPoint x="510" y="820" />
              <mxPoint x="510" y="869" />
            </Array>
          </mxGeometry>
        </mxCell>
      </root>
    </mxGraphModel>
  </diagram>
</mxfile>
